<svg id="Layer_1" data-name="Layer 1" xmlns="http://www.w3.org/2000/svg" viewBox="0 0 411.76 420.96"><defs><style>.cls-1{fill:#fff;}.cls-2{fill:#231f20;}.cls-3{fill:#17a8e0;}.cls-4{fill:#ed1c24;}.cls-5{fill:#495450;}.cls-6{fill:#3750a2;}.cls-7{fill:#009444;}</style></defs><title>mymensingh-medical-college-seeklogo</title><path class="cls-1" d="M443.52,233.5c0,112.65-91.31,204-204,204s-204-91.31-204-204,91.32-204,204-204S443.52,120.86,443.52,233.5Z" transform="translate(-33.69 -27.62)"/><path class="cls-2" d="M239.56,439.38C126,439.38,33.69,347,33.69,233.5S126,27.62,239.56,27.62,445.45,120,445.45,233.5,353.09,439.38,239.56,439.38Zm0-407.93c-111.4,0-202,90.64-202,202.05s90.64,202.05,202,202.05S441.61,344.92,441.61,233.5,351,31.45,239.56,31.45Z" transform="translate(-33.69 -27.62)"/><path class="cls-2" d="M400,138.17l-1.68,5.74s9.11,14.36,8.38,17-3.82-1-3.82-1l-10.31-12.69S394.24,175,387.76,177c0,0,13.17-4.55,15.1-6.71s3.83,1.44,3.83,1.44,0,9.8-2.41,6.7c0,0-3.59-4.54-4.06,2.15s7.18,5,9.09,1.93,1.91-9.82,1.91-9.82,7.91,16.52,5.28,21.55c0,0-9.33-8.14-16,0,0,0-6.71,14.61,2.39,17.71,0,0,7.41-6.23,0-11,0,0-3.12-1.91.47-4.3s6.77-2.11,13.9,5.74,7.16,34,3.33,33.52c0,0,2.88-3.43-1.42-6.27,0,0,8.14-23.43-10.06-17.68,0,0-6.45,14.61,2.39,13.88,0,0,7.18-3.82-.49-6.23,0,0,.6-7.16,5.27-3.33,0,0,4.3,9-3.82,13.35,0,0,9.07,3.87,3.35,6.27l-12,1L399,242.55h23.47s1.44,14.83-2.88,20.1c0,0-8.85-14.77-11.41,8.71,0,0-5.67,6.06-5-4.47s11.9-15.24,17.32-12.78c0,0,1.2-2.15-.47-2.54s-25.94,1.19-19,23.37c0,0,6.4,9.83,10.46-7.82,0,0,1.91-12.92,4.88-1.43l.15,3.75A46,46,0,0,0,409.8,282s-9.58-6.31-17.25.72c0,0,11.73-2.39,15.32,7.18,0,0,2.15,2.64,3.11,0s3.59-23.23,6.47-15.07-4.08,19.38-4.08,19.38,8.4,2.88,11.5-40.92S421.77,179.1,400,138.17Zm-3.37,30.64s1.08-7.61.24-10l-.24-.5a1.57,1.57,0,0,1,.24.5c.73,1.46,3,5.68,4.54,6.21C403.31,165.62,396.61,168.8,396.61,168.8Z" transform="translate(-33.69 -27.62)"/><path class="cls-2" d="M319.36,64.75s-41.49-17.55-66.7-16.27c0,0-4.79-7,12.44-5.74s15,7,15,7,4.88,3.19,1.76-3.27c0,0-8.62-10.53-31.12-7.89,0,0-9.58,3.11-5,8.85,0,0-52.66-3.35-58.17,16.52s17,13.9,17,13.9,9.58-3.6,4.54-8.15-9.09,5.2-9.81,4.75-9.1-2.35-5.51-10a15.41,15.41,0,0,1,13.89-9.34c3.59,0,11,0,12.21,1.67s4.3,3.6-1.21,3.83-8.38,5.75-2.39,7.66a8.37,8.37,0,0,0,9.34-2.87s10.45,3.74,11.73,8.24V50.07l9.82.24-.48,19.62s5.26,10.77,5.5,2.64,1.67-21.3,1.67-21.3l7.18.49s-1.91,24.41,15.58,24.9,18.65-7.43,12-15.09-8.15,3.12-8.15,3.12-6.77-1.95-2.15-8.62c0,0,16.27,1.68,28,9.33,0,0-22,9.09-2.38,23,0,0,12.92,3.6,8.85-6,0,0-4.9-1.22-8.38,1.2,0,0-12.44-6,2.39-12.93,0,0,5.28-3.36,14.61.71a148.17,148.17,0,0,1,18,9.58s1.44,2.15-.73,1.67-13.15-7.12-20.82-3.82c0,0,9.58,12.92,11,17.23a39.91,39.91,0,0,1,1.66,9.1S336.2,102,336,98s3.82-9.59,7.65-7.43,5.74,2.63,4.3,5.74-4.06,1.68-4.3,0-6.7-2.64-1.68,5.51,8.62-.72,8.62-.72,5.26-8.75-4.77-14.17c0,0-.49-2.35,1.42-1.15s27.53,23,31.85,31.37c0,0,.47,3.58-3.14-.24S365.64,100.58,357,100.1s-3.33,11.49,0,14.84,10.4,1.71,14.14,1.2,4.06,1.92,1.66,4.79-7.41,8.14-7.41,8.14-2.73,4.48-.41,6.56c0,0,18.07-18.84,22.76-12.14C387.76,123.48,371.71,93.8,319.36,64.75Zm-87.05-.56s-8.62-12.44-14.37-12.44c-.76,0,9.34-1.21,14.37,0Zm53.87,2.16c1.18,1.43,2.86,3.82,0,4.78s-17.49,4.55-18.93-6.94l-1.44-11.48,7.67,2.62s1,4.08-1.2,4.32-1.68,9.33,3.83,8.85S285,64.91,286.18,66.35Zm46.67,26.33c0,1.92-3.1-8.85-6.45-9.82,0,0,10,2.06,12.92,4C339.32,86.89,332.85,90.77,332.85,92.68Zm35.67,21.79H364.7s1.91-2.39-3.83-5.28-3.85-6.45,0-5,9.09,8.61,9.09,8.61Z" transform="translate(-33.69 -27.62)"/><path class="cls-2" d="M127.45,84.06l1.2-1.91,28.73-17.24h6.71v2.87l-13.18,6.7s13.89-2.39,13.18,3.37l-5.27,9h14.37s8.38,1.72,6.7,2.68-24.9,1.2-26.1,1.66a56.66,56.66,0,0,0-5.26,3.36S136.06,93.63,138,90c0,0,5.75,2.54,12.69-3.15s10.29-8.58,7.66-9-3.07-2.08-9.1,5.26l-3.83,3.79s-9.1,2.2-6.7-2.59l4.78-4.54h-1.91S130.8,84.06,127.45,84.06Z" transform="translate(-33.69 -27.62)"/><path class="cls-2" d="M129.13,99.38s.72.23,2.64-1.43,3.1-4.8,1.67-7.43-5-4.79-9.1-1.2a38.73,38.73,0,0,1-7.42,5.27s-4.31,7.66,4.31,10.3l3.34-1.44s-1.91,6.47,5,5.74S150,103.45,150,103.45l1.44-2.15S122.43,108.48,129.13,99.38Zm-4.79-1c-4.31.88-1-3.75-1-3.75,1.92-3.36,3.93-2.44,4.07-1.44C127.93,96.76,124.34,98.35,124.34,98.35Z" transform="translate(-33.69 -27.62)"/><path class="cls-2" d="M126.25,115.91c-5.51-3.12-15.32-10.31-15.32-10.31l-.73-1.91,3.12-4.08h-4.55l-28,34.71s-.71,1.92-2.63-.48-2.63-5,.23-8.38S98,107.29,98,107.29l-6.71.23s-25.13,18.84-17.71,28.1a35.78,35.78,0,0,0,4.11,4.56l-1,2.28S57.79,175,54.43,203s3.12,79.48,6.71,85.22c0,0,3.36-28,7.43-17.23,0,0,5.51,11,8.38.71,0,0-.72-7.17-3.11-7.65,0,0-2.15-6.95,6.23-11.26,0,0-8.62-2.39-21.07,1.2a24.51,24.51,0,0,1,0-17.95s4.31-1.2,6,8.84c0,0,3.81-3.91,3.69-8.89s8-16.71,11.39-16.48l-22.77-1.66S54,205.43,66.64,198.5c0,0-1.67,12.21,4.79,11.49s3.35-14.85,3.35-14.85,3.59-7.9,11.26-5.74l-21.79-7.67s-.71-6,11.26-28.49c0,0,7.89,1.44,6.7,3.59S72.68,162.11,71.46,169s4.76,8.38,9.55,5.5,0-9.81,0-9.81-3.11,0,1.92-3.11,6.94-4.79,13.65-1.43c0,0,1.67-2.63,0-3.59S77.1,148,77.1,148s.32-.48,2-3.35a36.09,36.09,0,0,0,2.15-4.07s-.71-1.92,2.16,0,13.91,8.85,13.91,8.85,3.81,1.44,6.44.24,2.87-4.3,0-5.26S87.7,139,86,135.62s9.57-12.53,9.57-12.53,6.95-3.6,6.95,0,3.37,5.66-5.51,6.45c0,0-2.88,7.35,1.67,6.08a23.66,23.66,0,0,0,8.38-4.88L109,118.06a3.42,3.42,0,0,1,3.11-3.12c2.88-.24,8.38,6.22,8.38,6.22l5.75-.23S131.76,119,126.25,115.91Zm-54.82,140-1.2,2.63S64,269.52,60.89,272c0,0-1.91-11-1.91-13.41Zm0-32.32a42.37,42.37,0,0,0-4.55,7.89c-1.67,4.08-2.63,2.88-2.75,0s-.59-5-3.95-5.5c0,0-.21,5.48-3.36,5.5v-7.89Zm4.08-34.47S71,191,71.43,192.84c0,0-7.66-.09-11.25,6.13,0,0-1.44-9.82,1.44-11.74S75.51,189.16,75.51,189.16Zm34-75.65s-4.31.48-3.36,4.07c0,0-5.73-2.87-7.17,0l6-9.81,4.55,1.49Z" transform="translate(-33.69 -27.62)"/><path class="cls-3" d="M240.28,437.47A203.9,203.9,0,0,0,417.24,335l-46.91-30.57a148.13,148.13,0,0,1-260.73-1.21l-47.72,29.2A203.9,203.9,0,0,0,240.28,437.47Z" transform="translate(-33.69 -27.62)"/><path class="cls-2" d="M239.56,383.52c-82.73,0-150-67.29-150-150s67.3-150,150-150,150,67.3,150,150S322.28,383.52,239.56,383.52Zm0-296.21c-80.62,0-146.19,65.59-146.19,146.19s65.58,146.2,146.19,146.2,146.18-65.59,146.18-146.2S320.17,87.31,239.56,87.31Z" transform="translate(-33.69 -27.62)"/><path class="cls-2" d="M246.47,336.49s6.06,8.72,7.26,9.35l-8.17-2.78Z" transform="translate(-33.69 -27.62)"/><path class="cls-2" d="M209.41,244.57c-9.27,4.56-14.85,0-14.85,0,2.06,2.37,5.44,4.56,4.56,5.59a63.78,63.78,0,0,0-3.39,5.44c5.3-6.62,8.54-5.88,12.79-4.41,3.42,1.18,15.28,4.28,19.78,3.41l19.37-3.76.55-7.33s-19.75-4.34-20.37-4.26A61.67,61.67,0,0,0,209.41,244.57Zm13.82,3.69s-3.68-.59-7.21-.89c0,0,4.56-4.7,7.21-3.24Z" transform="translate(-33.69 -27.62)"/><path class="cls-4" d="M274.72,211.58c-2.25-.64-.32-4.15-.32-4.15,21.7-24.9,1.93-50.43,1.93-50.43,4.45,10.21-5.76,22.34-5.76,22.34,3.83-25.54-12.76-45-12.76-45,.64,32.25-2.56,39.26-2.56,39.26l-15-78.52-12.13,75.65c-5.11-10.21-1.27-35.44-1.27-35.44-15,6.39-13.08,45.66-13.08,45.66-8-6.71-4.15-26.5-4.15-26.5-21.71,22.35-2.56,49.47-.33,51.71s0,6.07,0,6.07c-11.17,14.37,4.8,16.92,4.8,16.92-2.88,4.14,1.59,9.26,1.59,9.26h12.77l11.8,114.91c1.6-1.93,5.75-11.18,5.75-11.18l8.94-104.06H267.7c3.2,0,2.54-8,2.54-8C285.88,223.07,276.94,212.22,274.72,211.58ZM242,328.08V243.5h6.27Z" transform="translate(-33.69 -27.62)"/><path class="cls-2" d="M240.07,353.88l-.07-.56-11.78-114.7H215.56l-.08-.07c0-.06-4.35-5.06-1.8-9.24-1.42-.3-6.56-1.63-8.15-5.65-1.23-3.1,0-7,3.55-11.6,0,0,2.1-3.67,0-5.74a47.1,47.1,0,0,1-8.89-18.43c-2.1-8.84-2.23-21.85,9.21-33.62l.55-.57-.15.8c0,.19-3.57,19,3.65,25.89-.19-5-.92-39.28,13.26-45.31l.39-.17-.07.42c0,.24-3.59,24.15.93,34.59l12.22-76.23.26,1.34,14.84,77.61c.75-2.66,2.75-12.29,2.24-38.3l0-.67.43.51c.17.19,16.25,19.38,13,44.31,2-2.71,8.9-12.82,5.14-21.4l-.77-1.77,1.18,1.52a45.86,45.86,0,0,1,7.24,16c2.06,8.72,2.11,21.83-9.17,34.75h0s-1,2-.58,3.11a1.12,1.12,0,0,0,.79.65c1.29.37,4.43,3.68,4.73,7.75.23,3.12-1.16,7.58-9,11.14.08,1,.28,5.68-1.33,7.41a1.94,1.94,0,0,1-1.46.66H255.15L246.2,342.22c-.17.39-4.18,9.32-5.78,11.22ZM215.78,238.16h12.86l0,.21,11.75,114.28a113,113,0,0,0,5.34-10.58l8.95-104.24h13a1.41,1.41,0,0,0,1.1-.51c1.61-1.74,1.2-7.16,1.2-7.2v-.17l.15-.07c7.72-3.47,9.09-7.74,8.87-10.74-.28-4-3.4-7.05-4.38-7.33a1.64,1.64,0,0,1-1.1-.94c-.54-1.33.6-3.46.65-3.55,11.17-12.83,11.09-25.77,9.07-34.38a46.35,46.35,0,0,0-6.12-14.31c2.77,9.83-6.3,20.75-6.4,20.86l-.54.64.11-.83c3.42-22.79-9.69-41-12.27-44.28.58,31.33-2.47,38.38-2.6,38.67l-.3.68L240.27,96.46l-12,75-.34-.67c-4.7-9.43-1.83-31.74-1.36-35.14C212.28,142.45,214,180.53,214,180.92l0,.55-.42-.36c-7.18-6-5-22.13-4.37-25.93-10.73,11.46-10.58,24-8.54,32.61,2.42,10.12,7.87,17.3,8.76,18.19,2.33,2.35.13,6.19,0,6.36-3.49,4.49-4.66,8.22-3.52,11.14,1.71,4.34,8.07,5.41,8.14,5.42l.37.06-.22.32C211.71,232.94,215.23,237.49,215.78,238.16Zm26.41,89.94-.48,0V243.26h6.76l0,.26Zm0-84.37v77.88L248,243.74Z" transform="translate(-33.69 -27.62)"/><path class="cls-5" d="M274.36,211.58c-2.22-.64-65.42.64-65.42.64-11.18,14.37,4.8,16.92,4.8,16.92-2.88,4.14,1.58,9.26,1.58,9.26H228.1l11.8,114.91c1.59-1.93,5.74-11.18,5.74-11.18l8.93-104.06h12.77c3.2,0,2.56-8,2.56-8C285.54,223.07,276.6,212.22,274.36,211.58Zm-32.75,116.5V243.5h6.27Z" transform="translate(-33.69 -27.62)"/><path class="cls-2" d="M255.15,239.13S276.6,248,277,258.33c.66,17.39-49.28,31.18-42.82,36.18l1.2,11.66s-25.6-9.22-22.31-16.46c2.85-6.27,16.32-11.46,34-21.62s12.72-7.46,13.66-10.14c.92-2.52-2.15-5.27-7-5.87Z" transform="translate(-33.69 -27.62)"/><path class="cls-2" d="M249.69,299s13.29,5.13,13.2,10.83-27.08,15.14-25.79,16.33l1.27,12.3s-15.76-6.52-15.95-12.11,13.7-9.64,13.7-9.64,12.4-4.24,12.48-5.14Z" transform="translate(-33.69 -27.62)"/><rect class="cls-6" x="22.98" y="358.68" width="365.8" height="61.32"/><path class="cls-2" d="M423.42,448.59H55.7V385.34H423.42Zm-365.8-1.91H421.51V387.25H57.62Z" transform="translate(-33.69 -27.62)"/><path class="cls-1" d="M354.88,410.46h9v4.63S357.41,410.12,354.88,410.46Z" transform="translate(-33.69 -27.62)"/><path class="cls-2" d="M364.12,415.56l-.39-.28c-.06-.06-5.61-4.3-8.32-4.6h-.52l0-.48a3.17,3.17,0,0,1,.58,0h8.68Zm-7-4.88a36.14,36.14,0,0,1,6.47,3.93v-3.93Z" transform="translate(-33.69 -27.62)"/><path class="cls-1" d="M368.93,431.64v-21.2h20.52s1.4,7,0,7.29-3.09-2.65-3.09-2.65-8.72-4.64-11.24,0-.84,8.62,3.08,8.28,7,.32,5.61-2.32,2.26-3.66,3.95,0,5.89,14.58,5.89,14.58V410.44s3.11,2,4.51,0,0-4.63,0-4.63H341.68s-3.08,1.63,3.37,4.63a81.23,81.23,0,0,1,9,4.65s-.84,3-2.53,3-4.79-2-3.95-3c0,0-5.61,7.61,3.11,10.27,0,0,8.25-.25,8.71-6.62l4.49,2S360.77,429.33,368.93,431.64Z" transform="translate(-33.69 -27.62)"/><path class="cls-2" d="M393.9,436.9l-.45-1.21c0-.09-4.25-11-5.91-14.56-.75-1.64-1.87-2.24-2.67-2.24a1.11,1.11,0,0,0-1,.48,1.59,1.59,0,0,0,.15,1.55,1.8,1.8,0,0,1,.24,1.7c-.43.75-1.8.79-3.67.85-.71,0-1.53,0-2.37.12a3.91,3.91,0,0,1-3.93-1.82c-1-1.71-.8-4.26.6-6.81a4.4,4.4,0,0,1,4.25-2.2,18.4,18.4,0,0,1,7.31,2.1l.06,0,0,.06c.39.71,1.66,2.56,2.66,2.56l.17,0c.71-.18.49-3.66-.13-6.84H369.17V432l-.3-.07a7.56,7.56,0,0,1-5-3.74c-1.52-3-.62-6.41-.34-7.3l-4-1.76c-.75,6.19-8.83,6.5-8.92,6.5h0l0,0c-2.56-.77-4.15-2.06-4.77-3.8-1-2.88,1-6.08,1.48-6.72l.09-.12.37.28-.06.09a.51.51,0,0,0,.08.52,5.64,5.64,0,0,0,3.72,2c1.27,0,2-2,2.24-2.64a87.59,87.59,0,0,0-8.81-4.54c-2.79-1.3-4.23-2.53-4.25-3.68a1.64,1.64,0,0,1,.86-1.37l.11,0h56.64l.08.12c.06.12,1.44,2.81,0,4.87a2.34,2.34,0,0,1-2,1,5.89,5.89,0,0,1-2.47-.69Zm-9-18.49c.94,0,2.26.67,3.1,2.52,1.35,2.91,4.3,10.47,5.46,13.41V410l.35.23a5.85,5.85,0,0,0,2.58.83,1.9,1.9,0,0,0,1.61-.77c1.12-1.6.28-3.71,0-4.26H341.73a1.24,1.24,0,0,0-.56.93c0,.53.56,1.66,4,3.25a79.56,79.56,0,0,1,9,4.66l.15.1-.06.17c0,.13-.92,3.16-2.75,3.16a6,6,0,0,1-4.13-2.25.42.42,0,0,0-.08-.12c-.67,1.18-1.78,3.55-1,5.69.56,1.58,2,2.76,4.43,3.49.6,0,8-.53,8.44-6.4l0-.35,5,2.22-.08.22s-1.38,4,.22,7.12a7,7,0,0,0,4.38,3.41V410.19h20.95l0,.2c.35,1.68,1.35,7.21-.17,7.58a1.52,1.52,0,0,1-.28,0c-1.38,0-2.75-2.25-3-2.74a18.25,18.25,0,0,0-7-2,4,4,0,0,0-3.83,1.93c-1.31,2.4-1.54,4.78-.6,6.34a3.44,3.44,0,0,0,3.46,1.59c.86-.08,1.68-.1,2.43-.13,1.57,0,3-.09,3.25-.6.15-.25.06-.67-.26-1.24a2.06,2.06,0,0,1-.13-2A1.57,1.57,0,0,1,384.87,418.42Z" transform="translate(-33.69 -27.62)"/><path class="cls-1" d="M310.76,412.76s-5.05-6.28,3.1-4.63c0,0,13.21,6.62,11.52,10.27a21.22,21.22,0,0,1-5.63,6.62s14.35,7.29,10.68,10.61c0,0-21.36-9.93-22.46-10.93s-4.23-6.62,2.23-4,1.12,0,1.12,0,5.91,1.66,7.31-2S310.76,412.76,310.76,412.76Z" transform="translate(-33.69 -27.62)"/><path class="cls-2" d="M330.49,435.9l-.15-.07c-.88-.4-21.42-10-22.54-11-.73-.65-2.21-3.06-1.72-4.3a1.34,1.34,0,0,1,1.42-.8,7.91,7.91,0,0,1,2.79.72l1,.38.15-.39a12,12,0,0,0,2.82.37c2.21,0,3.63-.74,4.19-2.21a1.78,1.78,0,0,0-.09-1.53c-1.29-2.51-7.54-4.1-7.61-4.12l-.07,0-.06-.07c-.07-.11-2.17-2.74-1.44-4.27.5-1,2.09-1.29,4.77-.74l.06,0c.56.27,13.41,6.76,11.63,10.57A20.67,20.67,0,0,1,320.2,425c1.85,1,10.61,5.73,11.05,9.1a1.9,1.9,0,0,1-.66,1.71Zm-23-15.65c-.79,0-.94.37-1,.49-.39,1,.93,3.19,1.57,3.78.88.76,14.87,7.36,22.28,10.81a1.36,1.36,0,0,0,.39-1.19c-.45-3.44-11-8.86-11.13-8.91l-.34-.18.3-.23a20.62,20.62,0,0,0,5.56-6.53c1.31-2.82-7.74-8.12-11.39-10-2.36-.48-3.82-.29-4.21.5-.49,1,.77,3,1.33,3.7.8.2,6.53,1.77,7.84,4.33a2.28,2.28,0,0,1,.13,1.94c-.64,1.64-2.25,2.52-4.64,2.52h0a11.63,11.63,0,0,1-1.33-.08c.8.44.79.54.75.69l-.06.18h-.23c-.09,0-.33,0-3.25-1.2A7.56,7.56,0,0,0,307.5,420.25Z" transform="translate(-33.69 -27.62)"/><path class="cls-1" d="M289.12,416.73s-2.51-9.16,0-8.88c0,0-4.21-4.7-7-2s0,14.24,5,14.91a29,29,0,0,0,8.44,0s5.63-.67,1.4,3.64-14.87-1-16-3.64-3.67-9-5-8c0,0,2.81,13.59,7.86,15.25,0,0,8.47,5.63,14.78,0,0,0,8-4.64,2.08-12.92,0,0-4.21-3.95-6.73,2.67S289.12,416.73,289.12,416.73Z" transform="translate(-33.69 -27.62)"/><path class="cls-2" d="M291.94,430.74a16.49,16.49,0,0,1-8.25-2.53c-5.12-1.71-7.89-14.84-8-15.41l0-.15.13-.09a.85.85,0,0,1,.47-.14c1.37,0,3.07,3.74,4.7,7.57l.26.64c.8,1.88,6.68,5.13,11.26,5.13a5.85,5.85,0,0,0,4.36-1.56c1.14-1.18,1.68-2.12,1.46-2.63s-.9-.65-1.95-.65c-.41,0-.71,0-.71,0a22.6,22.6,0,0,1-4,.3,34.4,34.4,0,0,1-4.45-.3c-2.26-.29-4.34-2.7-5.55-6.46-1-3.24-1.25-7.31.36-8.86a3.12,3.12,0,0,1,2.17-.87c2.54,0,5.09,2.81,5.2,2.93l.43.47-.64-.07a.52.52,0,0,0-.5.21c-.94,1.22.24,6.45.77,8.38.28,1,1.29,3.52,2.38,3.52.45,0,1.14-.43,1.95-2.54,1-2.65,2.41-4,4.17-4a4.85,4.85,0,0,1,3,1.22q2.86,4,2.1,7.62a9.45,9.45,0,0,1-4.23,5.68A9.81,9.81,0,0,1,291.94,430.74ZM276.19,412.9c.36,1.63,3.12,13.38,7.67,14.88l.06,0a16.53,16.53,0,0,0,8,2.46,12.2,12.2,0,0,0,10.49-7.84c.49-2.26-.19-4.68-2-7.21h0a4.43,4.43,0,0,0-2.6-1.06c-1.53,0-2.79,1.24-3.72,3.68-.73,1.92-1.52,2.85-2.39,2.85-1.65,0-2.71-3.49-2.84-3.88-.21-.73-1.93-7.16-.67-8.79a.86.86,0,0,1,.41-.34c-.75-.74-2.69-2.44-4.53-2.44a2.67,2.67,0,0,0-1.85.75c-1.27,1.21-1.37,4.81-.21,8.35.88,2.77,2.71,5.83,5.14,6.13a33.54,33.54,0,0,0,4.4.3,22,22,0,0,0,4-.3s.34,0,.79,0c.9,0,2.06.16,2.38.94s-.19,1.77-1.55,3.15a6.31,6.31,0,0,1-4.7,1.69c-4.84,0-10.83-3.37-11.69-5.41l-.28-.64C279.56,418,277.37,412.77,276.19,412.9Z" transform="translate(-33.69 -27.62)"/><path class="cls-1" d="M251.19,412.76s-3.37-9.16,5.34-4.9c0,0,2.24,4.89,9.26,4.9,0,0,11.8,6,10.14,9s-6.75,8.29-9.86,8.77a5.11,5.11,0,0,1-4.49-5.15c0-4.64-5-4.64-5-1.66s2.53,1.66,2.53,1.66,3.66,2,1.4,3.65-12.24-1.34-9.91-3.65-.21-7.18,4-6.73,5.85-2.27,12.36,2.09-.28,1-.28,1,2.24-2.91,1.4-3.11S249.79,413.75,251.19,412.76Z" transform="translate(-33.69 -27.62)"/><path class="cls-2" d="M266.09,430.74h0a5.35,5.35,0,0,1-4.71-5.38c0-2.39-1.42-3.48-2.71-3.48a1.79,1.79,0,0,0-1.89,1.83c0,1.7.88,1.7,1.14,1.7a2.54,2.54,0,0,0,1-.26l.11-.06.11.06c.09,0,2.17,1.19,2.26,2.56a1.68,1.68,0,0,1-.82,1.47,3.9,3.9,0,0,1-2.3.53c-3,0-7.58-1.54-8.25-3.17a1.18,1.18,0,0,1,.33-1.36,5.43,5.43,0,0,0,1.14-3.48c.17-1.77.32-3.63,3.06-3.33a8,8,0,0,0,1,0,15,15,0,0,0,2.41-.24,15,15,0,0,1,2.32-.23c2.06,0,4.15.79,6.79,2.57l.11.08c1-1.45.82-1.76.82-1.76-.17,0-16.84-4.37-17.12-5.87a.35.35,0,0,1,0-.26c-.23-.68-1.18-3.75-.09-5.3.88-1.28,2.85-1.22,5.8.24l.08,0,0,.07c0,.06,2.3,4.77,9.05,4.78l.13,0c.37.19,9.35,4.81,10.32,8a1.73,1.73,0,0,1-.11,1.31c-1.57,2.76-6.72,8.38-10,8.88Zm-7.45-9.34c1.54,0,3.18,1.23,3.18,4a4.82,4.82,0,0,0,4.25,4.91c2.88-.48,7.87-5.57,9.63-8.65a1.13,1.13,0,0,0,.07-.93c-.86-2.89-9.29-7.3-10-7.69-6.55,0-9.05-4.32-9.39-5-2.66-1.28-4.4-1.42-5.13-.36-1.08,1.52.19,5,.2,5l.07.18-.1.07c.82,1,12.23,4.3,16.73,5.46a.48.48,0,0,1,.34.31c.06.14.21.54-.88,2.17h0c2.52,1.73,2.47,1.93,2.39,2.13a.31.31,0,0,1-.32.21,15.56,15.56,0,0,1-3.1-1.25l-.26-.13.19-.22s.19-.25.43-.61l-.09-.08c-3.29-2.2-5.22-2.49-6.53-2.49a13.54,13.54,0,0,0-2.24.23,15.53,15.53,0,0,1-2.49.24,6.88,6.88,0,0,1-1-.06c-2.14-.2-2.36.87-2.55,2.9a5.88,5.88,0,0,1-1.28,3.78.73.73,0,0,0-.23.83c.57,1.35,4.74,2.87,7.82,2.87a3.65,3.65,0,0,0,2-.42,1.32,1.32,0,0,0,.64-1.07c-.08-.87-1.33-1.78-1.91-2.11a3.34,3.34,0,0,1-1.16.26c-.6,0-1.61-.29-1.61-2.19A2.25,2.25,0,0,1,258.65,421.4Zm8.36.25c.69.33,1.54.71,2.1.92-.32-.25-.86-.66-1.79-1.32C267.2,421.41,267.08,421.54,267,421.65Z" transform="translate(-33.69 -27.62)"/><path class="cls-1" d="M230.68,412.76s-2.81-11.48,6.74-4.9c0,0-1.12,5.91,2.52,7.23s8.44,8.28,6.75,8.94-4.5,6-10.4,6.48-14.94-8.62-6-8.77c1.51,0,8.83,2.68,9.66,0s-3.16-4-3.16-4Z" transform="translate(-33.69 -27.62)"/><path class="cls-2" d="M235.84,430.76c-4.3,0-9.52-4.25-9.54-6.93,0-.85.5-2.27,4-2.34h0a12.38,12.38,0,0,1,2.24.41,24.2,24.2,0,0,0,4.89.78c1.34,0,2.09-.33,2.3-1,.76-2.43-3-3.69-3-3.69l-.09,0-6.17-5,0-.08c0-.18-1.08-4.49.39-6.37,1.14-1.45,3.41-1.06,6.72,1.22l.12.08,0,.16c0,.06-1,5.72,2.38,7,3.23,1.17,7.22,6.56,7.26,8.51a.85.85,0,0,1-.52.88,7.49,7.49,0,0,0-1.81,1.58c-1.77,1.82-4.45,4.56-8.64,4.91ZM230.32,422c-1.63,0-3.55.38-3.54,1.84,0,2.46,5.08,6.46,9.06,6.46a3.43,3.43,0,0,0,.43,0c4-.33,6.62-3,8.35-4.78a7.42,7.42,0,0,1,2-1.68c.07,0,.21-.08.2-.42,0-1.8-3.92-7-6.93-8.07-3.51-1.27-2.87-6.37-2.71-7.35-3-2-5-2.44-5.94-1.21-1.23,1.56-.46,5.3-.34,5.88l6,4.91c1.47.49,4,2,3.27,4.27-.29.89-1.21,1.35-2.76,1.35h0a24.56,24.56,0,0,1-5-.79A13.4,13.4,0,0,0,230.32,422Z" transform="translate(-33.69 -27.62)"/><path class="cls-1" d="M138.23,398.2c-14.07-2.65-13.5,9.66-13.5,9.66h-5.62l-.84-5.08h-1.69v3.95l-36.24,1.13v2.58H91.58v2.32H85.39l2.81,5.87h3s4.89,3.75,1.23,5.55,2,6.35,2,6.35c10.68-2.12,16.86,7.42,16.86,7.42h4.5c1.13-4.31-12.64-10.61-12.64-10.61s5.62-3.64,7-5.6-1.13-1-2.81-5.08,2.24-3.9,2.24-3.9h7.31v17.77l3.94,0V412.76h5l3,15.91,1.78,1.84s.29-18.4-.28-20.07,3.1,0,3.1,0l.29-2.58s-6.47,1.59-4.5-1.13,4.78-4.23,10.39-3.89a31.72,31.72,0,0,1,9.84,2.17l3.38.81C152.39,403.54,152.27,400.84,138.23,398.2Zm-32.88,23.54H98.88l2-3.11h4.5Zm-1.13-9H98.88v-2.32h6.47Z" transform="translate(-33.69 -27.62)"/><path class="cls-2" d="M115.93,438.18h-4.81l-.07-.1c0-.08-5-7.62-13.6-7.62a16.13,16.13,0,0,0-3,.3l-.1,0-.09-.07c-.14-.12-3.52-2.89-3.27-5.06A2.19,2.19,0,0,1,92.31,424a1.86,1.86,0,0,0,1.22-1.43c.15-1.52-2-3.35-2.43-3.67H88l-3-6.33h6.32v-1.86H80.1v-3h.23l36-1.12v-3.95h2.13l.85,5.07h5.17a11,11,0,0,1,2.71-7.29c2.37-2.49,6.13-3.29,11.06-2.37,13.81,2.61,14.32,5.28,14.77,7.62l.1.55-3.73-.9a32.29,32.29,0,0,0-9.79-2.16c-5.06-.3-8,.8-10.18,3.8-.29.39-.38.7-.31.87s.59.35,1.29.35a17.32,17.32,0,0,0,3.25-.46l.34-.08-.36,3.25-.31-.14a8.06,8.06,0,0,0-2.43-.73.49.49,0,0,0-.35.1c0,.06,0,.17,0,.33.57,1.69.31,19.41.3,20.15v.58l-2.23-2.31,0-.07-3-15.7H121v17.73l-4.41,0V413H109.5a2.64,2.64,0,0,0-2.09.87,2.9,2.9,0,0,0,.12,2.69,7.13,7.13,0,0,0,2.44,3.19c.78.6,1.16,1,.35,2.12-1.22,1.71-5.45,4.58-6.72,5.43,2.29,1.09,13.45,6.61,12.38,10.7Zm-4.55-.48h4.17c.64-4.07-12.41-10.08-12.54-10.15l-.41-.17.37-.25c.06,0,5.6-3.63,7-5.53.58-.82.44-.94-.25-1.48a7.43,7.43,0,0,1-2.59-3.39,3.31,3.31,0,0,1-.08-3.13,3.1,3.1,0,0,1,2.49-1.09h7.61v17.76h3.45V412.52h5.5l0,.19,3,15.84,1.34,1.37c.08-6.49.14-18.15-.28-19.41a.85.85,0,0,1,0-.78.87.87,0,0,1,.74-.29,7,7,0,0,1,2.33.65l.21-1.94a15.35,15.35,0,0,1-3,.39c-.94,0-1.5-.19-1.71-.6s-.07-.8.34-1.38c2.26-3.12,5.38-4.28,10.61-4a31.8,31.8,0,0,1,9.91,2.2l3,.7c-.41-2.16-1.2-4.58-14.35-7.07-4.77-.89-8.37-.14-10.62,2.24-2.74,2.86-2.58,7.15-2.58,7.18v.25h-6.06l-.85-5.06h-1.24V407h-.23l-36,1.11v2.11H91.82V413h-6l2.58,5.38h2.91l.07,0c.11.09,2.86,2.24,2.68,4.15a2.33,2.33,0,0,1-1.48,1.81,1.69,1.69,0,0,0-1.09,1.32c-.2,1.74,2.51,4.12,3,4.56a15.53,15.53,0,0,1,3-.29C105.7,430,110.71,436.75,111.37,437.7ZM105.59,422H98.45l2.26-3.6h4.87Zm-6.27-.49h5.79v-2.64H101Zm5-8.49H98.65v-2.81h7.08Zm-5.25-.48h4.95l.9-1.86H99.12Z" transform="translate(-33.69 -27.62)"/><path class="cls-1" d="M190.21,405.83H155.65l-.55,4.56c0-.35,0-2.67-6.47-3.66-7-1.08-7.87,3.39-11.24,3.71s-1.68,5,0,6.86,2.53-2.22,2.53-2.22-.85,5.3,2.81,5.38,7.58-3.06,9.55-5.38,4.22,0,4.22,0V429l3.38,1.5V412.76H163c9.84,17.54,19.39,16.25,27,11.42s-1.42-13.74-1.42-13.74,5.64-.32,8.16-2.58S190.21,405.83,190.21,405.83Zm-39.06,7c-.85.61-3.67,2.25-3.67,2.25-.83.34-7.29.32-5.61-2.33s5.61-2.32,5.61-2.32S152,412.22,151.16,412.83ZM182.06,424c-8.43,1.67-14.61-11.27-14.61-11.27v-2.32h12.36s-1.41,2.31-1.83,2.32-6,5.87,0,5.87h6c.85-.55,1.13-6.19,4.22-3.54C188.24,415.09,190.49,422.37,182.06,424Z" transform="translate(-33.69 -27.62)"/><path class="cls-2" d="M160.1,430.87l-3.84-1.72v-14a3.34,3.34,0,0,0-2-.9,2.33,2.33,0,0,0-1.78.94c-1.72,2-5.69,5.48-9.6,5.48h-.15a2.76,2.76,0,0,1-2.17-1,5,5,0,0,1-.94-2.92c-.31.66-.75,1.25-1.36,1.25a1.42,1.42,0,0,1-1-.58c-1.18-1.32-2.51-4.19-1.82-5.93a2.17,2.17,0,0,1,2-1.35,5.77,5.77,0,0,0,3-1.52,9.13,9.13,0,0,1,6.16-2.34,13.78,13.78,0,0,1,2.09.17c4.15.63,5.74,1.82,6.33,2.74l.46-3.65h35.46c2.7,0,6,.23,6.42,1.29.13.37,0,.76-.49,1.17-2.14,1.92-6.33,2.47-7.79,2.6,1.13,1.22,4.55,5.28,4.13,9.16a6.18,6.18,0,0,1-3.11,4.58,17.63,17.63,0,0,1-9.45,3.16h0c-6.46,0-12.29-4.76-17.81-14.54H160.1Zm-3.37-2,2.89,1.3V412.52h3.47l.08.11c5.36,9.58,11.23,14.42,17.45,14.42h0A17.06,17.06,0,0,0,189.8,424a5.65,5.65,0,0,0,2.9-4.22c.47-4.32-4.3-9.1-4.35-9.16l-.39-.37.54,0c.06,0,5.58-.34,8-2.51.2-.19.43-.44.36-.63-.23-.6-2.58-1-6-1h-35l-.53,4.36-.48,0c0-.25.07-2.43-6.27-3.4a14.06,14.06,0,0,0-2-.16,8.73,8.73,0,0,0-5.87,2.24,6.24,6.24,0,0,1-3.28,1.62,1.71,1.71,0,0,0-1.58,1c-.59,1.5.61,4.19,1.72,5.43a1,1,0,0,0,.69.41c.66,0,1.23-1.54,1.43-2.52l.47.09s-.43,2.86.76,4.29a2.37,2.37,0,0,0,1.83.81h.13c3.74,0,7.56-3.33,9.23-5.29a2.79,2.79,0,0,1,2.14-1.12,3.83,3.83,0,0,1,2.43,1.1l.07.08Zm23.83-4.42c-7.71,0-13.1-11.07-13.33-11.55l0-.1v-2.57h13l-.22.37c-.67,1.11-1.58,2.43-2,2.44-.29.13-2.83,2.74-2.52,4.26.15.74,1,1.11,2.52,1.11h6a5.18,5.18,0,0,0,.52-1.26c.45-1.33,1-3,2.3-3a2.56,2.56,0,0,1,1.63.76l.06,0,0,.06a7.76,7.76,0,0,1-.64,5.77c-1.07,1.77-3,2.94-5.71,3.48A7.89,7.89,0,0,1,180.56,424.41ZM167.69,412.7c.4.8,5.71,11.23,12.87,11.23a7.05,7.05,0,0,0,1.46-.15c2.59-.5,4.4-1.6,5.4-3.26a7.3,7.3,0,0,0,.62-5.3,2.09,2.09,0,0,0-1.26-.6c-1,0-1.45,1.47-1.84,2.64-.26.79-.46,1.35-.77,1.56l-.07,0H178c-2.48,0-3-1-3-1.83,0-1.81,2.57-4.5,3-4.51a8.85,8.85,0,0,0,1.4-1.86H167.69Zm-21.74,2.78c-.86,0-3.76-.1-4.45-1.35a1.44,1.44,0,0,1,.18-1.51c1.41-2.21,4.27-2.44,5.43-2.44h.41l.07,0c1.14.46,3.81,1.61,3.91,2.39a.46.46,0,0,1-.21.42c-.83.61-3.55,2.2-3.67,2.26A5.33,5.33,0,0,1,145.95,415.48Zm1.16-4.82c-1.08,0-3.75.21-5,2.22a1,1,0,0,0-.16,1c.42.77,2.33,1.11,4,1.11a5.23,5.23,0,0,0,1.46-.14s2.79-1.64,3.61-2.23c0-.31-1.68-1.22-3.57-2Z" transform="translate(-33.69 -27.62)"/><path class="cls-1" d="M207.08,415.69a2.74,2.74,0,0,1-2.49,2.93h-2.9a2.74,2.74,0,0,1-2.49-2.93h0a2.74,2.74,0,0,1,2.49-2.94h2.9a2.74,2.74,0,0,1,2.49,2.94Z" transform="translate(-33.69 -27.62)"/><path class="cls-2" d="M204.59,418.86h-2.9a3.2,3.2,0,0,1,0-6.33h2.9a3.2,3.2,0,0,1,0,6.33Zm-2.9-5.86a2.73,2.73,0,0,0,0,5.38h2.9a2.73,2.73,0,0,0,0-5.38Z" transform="translate(-33.69 -27.62)"/><path class="cls-1" d="M207.08,423.13a2.74,2.74,0,0,1-2.49,2.93h-2.9a2.74,2.74,0,0,1-2.49-2.93h0a2.73,2.73,0,0,1,2.49-2.93h2.9a2.73,2.73,0,0,1,2.49,2.93Z" transform="translate(-33.69 -27.62)"/><path class="cls-2" d="M204.59,426.3h-2.9a3.2,3.2,0,0,1,0-6.33h2.9a3.2,3.2,0,0,1,0,6.33Zm-2.9-5.86a2.73,2.73,0,0,0,0,5.38h2.9a2.73,2.73,0,0,0,0-5.38Z" transform="translate(-33.69 -27.62)"/><path class="cls-7" d="M256.5,355l.32-1.83c.54-3.21,3.57-19.2,9.46-19.2a4.78,4.78,0,0,1,3.5,1.92,6.57,6.57,0,0,1,1.72,5.84c-1.35,6.68-12.85,12.23-13.33,12.48Zm9.78-19.12c-2.9,0-5.8,8.62-7.22,15.68,3.16-1.77,9.67-5.88,10.57-10.22a4.7,4.7,0,0,0-1.29-4.19A3.05,3.05,0,0,0,266.28,335.84Z" transform="translate(-33.69 -27.62)"/><path class="cls-7" d="M274.12,351l.26-2.06c.67-5.29,3.2-22.55,8.27-22.55,1.14,0,2.19.77,3.2,2.34,6.49,10.13-9.31,20.69-10,21.13Zm8.53-22.68c-2.1,0-4.7,9.26-6.06,18.64,3.78-3,11.93-10.49,7.65-17.2C283.64,328.84,283.06,328.33,282.65,328.33Z" transform="translate(-33.69 -27.62)"/><path class="cls-7" d="M289.94,344.21l.24-2.23c.75-7.11,3-23.66,7.52-23.66,1.08,0,2.06.81,3,2.48,5.74,10.53-8.36,21.58-9,22Zm7.76-24c-1.63,0-4,8.87-5.33,19.51,3.48-3.27,10.44-11,6.62-18C298.36,320.54,297.87,320.24,297.7,320.24Z" transform="translate(-33.69 -27.62)"/><path class="cls-7" d="M303.78,336.28l-.13-2.23c-.13-2.07-1.08-20.33,2.23-23.83a2.24,2.24,0,0,1,1.66-.77c1,0,1.95.64,3,2,7.41,9.46-4.71,22.66-5.22,23.21Zm3.76-24.91s-.11,0-.26.17c-1.87,2-2.11,12.39-1.83,19.95,2.92-3.81,8.49-12.59,3.59-18.86C308.08,311.41,307.6,311.36,307.54,311.36Z" transform="translate(-33.69 -27.62)"/><path class="cls-7" d="M317.32,324.64l-.34-2.22c-.51-3.41-2.84-20.5.19-24a2.23,2.23,0,0,1,1.7-.81,4.41,4.41,0,0,1,3,1.71c8.21,8.76-2.69,23-3.14,23.6Zm1.55-25.16s-.11,0-.24.15c-1.72,2-1,12.5-.09,20.07,2.56-4,7.35-13.3,1.91-19.11C319.46,299.54,319,299.48,318.88,299.48Z" transform="translate(-33.69 -27.62)"/><path class="cls-7" d="M329.13,312.42l-.71-2.4c-1.23-4.13-7.26-24.91-4.45-28.69,1-1.29,2.62-1.1,4.75,1,9.89,9.59,1.83,27.13,1.5,27.87Zm-3.57-30c-1.46.86.37,11.93,3.91,24.39,1.8-5.07,4.75-16.52-2.08-23.14C326.17,282.48,325.65,282.41,325.55,282.41Z" transform="translate(-33.69 -27.62)"/><path class="cls-7" d="M340.37,297.48l-1.1-2.24c-1.94-3.95-11.48-23.81-9.05-27.74.82-1.28,2.41-1.31,4.77.34,11.35,7.83,6.29,26.45,6.06,27.23Zm-8.44-29c-1.31,1.08,2.3,11.73,7.84,23.41.93-5.29,1.95-17.07-5.87-22.47A4.08,4.08,0,0,0,331.93,268.47Z" transform="translate(-33.69 -27.62)"/><path class="cls-7" d="M347.85,270.92l-1.4-1c-.54-.39-13.26-9.71-14.29-17.39a6.13,6.13,0,0,1,1.27-4.88c1.93-2.4,4.41-2.38,6.77.14,4.45,4.79,8,17.64,7.76,21.42Zm-11.24-23.16a2.39,2.39,0,0,0-1.68,1.08,4.36,4.36,0,0,0-.88,3.43c.73,5.35,8.45,12.07,11.88,14.83-.66-4.84-3.76-14.4-7.13-18A3.42,3.42,0,0,0,336.61,247.77Z" transform="translate(-33.69 -27.62)"/><path class="cls-7" d="M352.6,252.17l-1.65-.89c-.5-.26-12.25-6.67-13.6-14a7.56,7.56,0,0,1,1.95-6.5,5,5,0,0,1,3.65-2c6.25,0,8.94,18,9.41,21.61Zm-9.65-21.57a3.26,3.26,0,0,0-2.19,1.4,5.56,5.56,0,0,0-1.51,4.89c.9,4.94,7.71,9.69,10.92,11.7C348.9,240.56,346.07,230.6,342.95,230.6Z" transform="translate(-33.69 -27.62)"/><path class="cls-7" d="M354.45,231l-1.46-.39c-2-.53-19-5.39-17.88-12.59a4.48,4.48,0,0,1,4.81-3.83c4.6,0,12.33,4.87,14.27,15.32Zm-14.53-14.91A2.63,2.63,0,0,0,337,218.3c-.67,4.21,9.61,8.32,15,10C349.87,220.31,343.79,216.07,339.92,216.07Z" transform="translate(-33.69 -27.62)"/><path class="cls-7" d="M353.07,214.91l-1.54-.5s-4.79-1.55-8.58-2.65c-3.59-1-12-7.53-12.89-11.16a2.15,2.15,0,0,1,.5-2.18,4.63,4.63,0,0,1,3.25-.92c5,0,16.7,4,19,15.81Zm-19.25-15.49a3.36,3.36,0,0,0-1.93.38.69.69,0,0,0,0,.35c.67,2.66,8.36,8.86,11.56,9.77,2.45.71,5.29,1.59,7,2.15C347.77,202.64,338.07,199.42,333.82,199.42Z" transform="translate(-33.69 -27.62)"/><path class="cls-7" d="M348.28,195.72l-1.29-.06c-.79,0-19.47-.87-21.81-10.63a3.72,3.72,0,0,1,.39-3.25,3,3,0,0,1,2.49-1c5.46,0,18.67,9.1,19.88,13.71Zm-20.22-13a1.37,1.37,0,0,0-1,.29,2.32,2.32,0,0,0,0,1.62c1.64,6.85,13.91,8.63,18.4,9C342.57,189.49,332.16,182.67,328.06,182.67Z" transform="translate(-33.69 -27.62)"/><path class="cls-7" d="M341.1,180.63c-2.3,0-14.42-.38-25-7.88l-1.48-1,1.69-.64a32.39,32.39,0,0,1,10.4-1.84c7.71,0,13.11,3.49,15.6,10.1l.47,1.26Zm-22.29-8.35a44.77,44.77,0,0,0,21.12,6.41c-2.37-5-6.84-7.56-13.24-7.56A30.67,30.67,0,0,0,318.8,172.29Z" transform="translate(-33.69 -27.62)"/><path class="cls-7" d="M321.16,164.67c-6.57,0-11.18-1.93-13.78-5.72l-.52-.78.77-.54a20.18,20.18,0,0,1,10.92-3.36c5.42,0,10.29,2.41,14.51,7.16l1,1.11-1.42.44A43.51,43.51,0,0,1,321.16,164.67Zm-11.58-6c2.32,2.71,6.21,4.08,11.58,4.08a41.61,41.61,0,0,0,9.37-1.19c-3.57-3.56-7.59-5.37-12-5.37A18.6,18.6,0,0,0,309.58,158.67Z" transform="translate(-33.69 -27.62)"/><path class="cls-7" d="M306.14,152a38.4,38.4,0,0,1-10.29-1.45l-.9-.26.23-.89c0-.1,2.86-11,19.25-10.26l.45,0,6.77,8.9-.9.55A30.33,30.33,0,0,1,306.14,152Zm-8.79-3a36,36,0,0,0,8.79,1.11,30.32,30.32,0,0,0,12.64-2.62l-4.9-6.43C302.13,140.64,298.34,146.62,297.35,148.95Z" transform="translate(-33.69 -27.62)"/><path class="cls-7" d="M288.67,138.9c-.75,0-1.52,0-2.3-.07l-.26,0-.22-.14a3.81,3.81,0,0,1-1.55-3.31c.22-3.1,4-6.49,11.35-10.08l.56-.28,9.58,8.05-.75.74C304.85,134,299.74,138.9,288.67,138.9Zm-1.89-2c9,.45,14.2-2.49,16.1-3.84L296,127.27c-8.23,4.13-9.63,6.91-9.73,8.21A2,2,0,0,0,286.78,136.93Z" transform="translate(-33.69 -27.62)"/><path class="cls-7" d="M282.66,126.94a13.09,13.09,0,0,1-6.53-1.43,37.82,37.82,0,0,1-5.69-4.49c-3.14-2.8-6.69-6-10.27-6.86a8.06,8.06,0,0,0-2-.26h-.37l-9.41.48,9.11-2.37a64.12,64.12,0,0,1,14.4-1.79c12.79,0,19.77,5,20.18,14.4l0,.74-.71.21A32.89,32.89,0,0,1,282.66,126.94Zm-20.09-14c3.31,1.42,6.38,4.17,9.15,6.63a36.64,36.64,0,0,0,5.37,4.26,11.17,11.17,0,0,0,5.57,1.18,31.11,31.11,0,0,0,7.46-1.06c-.69-7.85-6.81-11.81-18.22-11.81A59.57,59.57,0,0,0,262.58,113Z" transform="translate(-33.69 -27.62)"/><path class="cls-7" d="M289.94,122.06c-2.11-2.43-15.6-5.57-20-6.62-1.1-.25-1.83-.43-2-.5l.62-1.81c.17.07.86.21,1.85.45,9.16,2.14,18.82,4.68,21,7.23Z" transform="translate(-33.69 -27.62)"/><path class="cls-7" d="M306.81,133.68l-11.63-7,0-.51c-.06-1.72-.58-16.91,2.56-20.17a2.33,2.33,0,0,1,1.7-.79,3.35,3.35,0,0,1,2.34,1.17c6.21,6.1,5.2,24.91,5.14,25.71Zm-9.78-8.1,8,4.81c.09-4.65,0-18.09-4.66-22.63-.58-.57-.9-.62-1-.62s-.15,0-.34.2C297.2,109.29,296.84,119.35,297,125.58Z" transform="translate(-33.69 -27.62)"/><path class="cls-7" d="M321.81,148c-2.17,0-4.73-4.73-6.06-7.56l-.09-.28c-.24-1.93-2.36-18.94.73-22.46a2.32,2.32,0,0,1,1.74-.83,4.15,4.15,0,0,1,2.81,1.52c5.76,5.84,5,18.5,3.78,24.39-1,4.57-1.91,5-2.28,5.11A1.65,1.65,0,0,1,321.81,148Zm-4.26-8.24c1.5,3.13,3.4,6,4.21,6.31,1.22-1.58,4.49-19.59-2.19-26.34-.86-.88-1.33-.94-1.44-.94s-.15,0-.3.18C315.94,121.17,316.65,132.84,317.55,139.8Z" transform="translate(-33.69 -27.62)"/><path class="cls-7" d="M336.38,160.43h-2.51L328,155.69v-.43c0-1.56-.3-15.33,2.79-18.48a2.41,2.41,0,0,1,1.76-.8c1.35,0,2.69,1.12,4.23,3.55,8,12.64-.06,20.56-.15,20.63Zm-1.83-1.91h1c1.22-1.37,6.06-7.79-.41-18-1.59-2.54-2.45-2.66-2.6-2.66s-.19,0-.39.21c-1.85,1.9-2.36,11-2.24,16.66Z" transform="translate(-33.69 -27.62)"/><path class="cls-7" d="M342.2,178.12l-.35-1.53c-.13-.63-3.46-15.4.73-20.69,1.5-1.88,3.72-2.43,6.55-1.58l.45.14.17.46c.06.12,4.49,13.06-6.34,22.19Zm4.51-22.28a3.14,3.14,0,0,0-2.62,1.24c-2.69,3.38-1.63,12.6-.71,17.44,7.39-7.26,5.33-16.33,4.71-18.52A6.39,6.39,0,0,0,346.71,155.84Z" transform="translate(-33.69 -27.62)"/><path class="cls-7" d="M349.14,194.49l-.3-1c-.13-.48-3.52-11.48.88-18.66a12.22,12.22,0,0,1,8.87-5.63l.84-.14.24.82c.06.19,5.2,18.72-9.59,24.2ZM358,171.31a10.17,10.17,0,0,0-6.68,4.56c-3.22,5.27-1.65,13.26-1,16.07C360.72,187.33,358.77,174.72,358,171.31Z" transform="translate(-33.69 -27.62)"/><path class="cls-7" d="M352.49,209.43a9.1,9.1,0,0,1-3.44-.72l-.56-.23,0-.6c0-.12-.67-12.47,13.69-18.9l1.44-.64-.09,1.57C363.45,190.71,362.23,209.43,352.49,209.43Zm-2.13-2.28a6.89,6.89,0,0,0,2.13.38c6,0,8.34-10.42,9-16.07C351.35,196.66,350.41,204.85,350.36,207.15Z" transform="translate(-33.69 -27.62)"/><path class="cls-7" d="M353.29,232.34l-.19-1.18a13.41,13.41,0,0,1-.13-1.48c-.09-3.12.64-13.56,14-17.11l.69-.19.37.61a9,9,0,0,1,.52,7.24c-1.52,4.57-6.27,8.5-14.12,11.66Zm13.37-17.71c-10.9,3.27-11.88,11.52-11.78,15,6.49-2.8,10.57-6.22,11.8-9.93A7.46,7.46,0,0,0,366.67,214.63Z" transform="translate(-33.69 -27.62)"/><path class="cls-7" d="M352.67,251.58l.47-1.42c.22-.75,6-18.28,16.66-18.28h.34c3.74.14,4.39,2.15,4.45,3.33.23,5.23-10.88,15-20.44,16.19Zm17.13-17.8c-7.59,0-12.68,11.27-14.29,15.43,8.44-1.88,17.34-10.16,17.15-13.93,0-.35-.06-1.4-2.58-1.49Z" transform="translate(-33.69 -27.62)"/><path class="cls-7" d="M352.66,270.78a7.17,7.17,0,0,1-3.35-.79l-.58-.31.07-.66c0-.14,1.81-12.83,15.58-12.83a29.32,29.32,0,0,1,6.68.85l1.55.37-1,1.2C371.12,259.11,360.7,270.78,352.66,270.78Zm-1.83-2.22a5.31,5.31,0,0,0,1.83.3c5.78,0,13.47-7.34,16.33-10.31a25.55,25.55,0,0,0-4.6-.45C353.91,258.11,351.37,266.12,350.82,268.57Z" transform="translate(-33.69 -27.62)"/><path class="cls-7" d="M350.82,288.72a16,16,0,0,1-6.6-1.48l-.73-.34.21-.78c0-.11,3.16-11.29,14.85-11.29a25.61,25.61,0,0,1,9,1.83l1.1.42-.66,1C367.69,278.53,361,288.72,350.82,288.72Zm-5-2.89a13.8,13.8,0,0,0,5,1c7.35,0,12.91-6.27,14.83-8.75a22.47,22.47,0,0,0-7.11-1.29C350,276.76,346.71,283.5,345.83,285.83Z" transform="translate(-33.69 -27.62)"/><path class="cls-7" d="M343,306.94a33.88,33.88,0,0,1-7.18-.85,1.22,1.22,0,0,1-.92-1.38c.26-2.37,7.52-9.87,18.7-9.87a26.42,26.42,0,0,1,4.58.42l1,.18-.23,1C358.92,296.53,356.32,306.94,343,306.94ZM337,304.38A30,30,0,0,0,343,305c9.54,0,12.81-5.69,13.77-8a22.5,22.5,0,0,0-3.16-.21C344.5,296.76,338.37,302.29,337,304.38Z" transform="translate(-33.69 -27.62)"/><path class="cls-7" d="M331.86,325.12a32.2,32.2,0,0,1-10.45-1.94l-.9-.3.3-.9c0-.1,3.33-9.41,15.24-9.07,10,.33,11.17,1.81,11.52,2.29a1.31,1.31,0,0,1,.28,1.1l-.08.18C347.61,316.84,343.49,325.12,331.86,325.12ZM323,321.7a29.64,29.64,0,0,0,8.85,1.5c8.83,0,12.85-5.33,13.92-7-.71-.35-3-1.11-9.8-1.34C327.48,314.54,324.06,319.6,323,321.7Z" transform="translate(-33.69 -27.62)"/><path class="cls-7" d="M328.21,340.62c-7.05,0-18.26-2.83-20.78-6l-.69-.86,1-.55c.32-.2,7.76-4.56,15.3-4.56a13.39,13.39,0,0,1,10,3.91c.26.27.52.56.77.85,1.51,1.88,2,3.49,1.37,4.8C334.36,339.8,332,340.62,328.21,340.62Zm-18.39-6.43c3.22,2.23,12.21,4.51,18.39,4.51,4.23,0,5-1,5.2-1.35.28-.57-.13-1.54-1.12-2.76-.21-.26-.43-.51-.64-.74a11.56,11.56,0,0,0-8.66-3.33C317.64,330.52,312.14,333,309.82,334.19Z" transform="translate(-33.69 -27.62)"/><path class="cls-7" d="M307.56,353.24c-5.2,0-9.75-2.9-13.52-8.61l-.32-.49.3-.59c.54-1,4.81-4,9.86-4,3.65,0,9,1.56,13.56,9l.43.72-.64.52A16.58,16.58,0,0,1,307.56,353.24ZM296,344.16c3.31,4.75,7.18,7.18,11.52,7.18a14.49,14.49,0,0,0,7.76-2.52c-3.22-4.89-7.07-7.36-11.45-7.36A13.3,13.3,0,0,0,296,344.16Z" transform="translate(-33.69 -27.62)"/><path class="cls-7" d="M285.28,361.76c-6.72,0-8.75-5.5-8.9-8.41v-1.4l.22-.27a9.57,9.57,0,0,1,7.13-3.1c4.81,0,9.93,3.29,15.26,9.78l.86,1.07-1.31.46A45,45,0,0,1,285.28,361.76Zm-7-9.1v.65c0,.21.43,6.55,7,6.55a45.94,45.94,0,0,0,11.28-1.39c-4.55-5.22-9-8-12.83-8A7.76,7.76,0,0,0,278.31,352.66Z" transform="translate(-33.69 -27.62)"/><path class="cls-7" d="M274.23,366.51c-5.72,0-11.52-3.61-17.23-10.74l-.81-1,1.2-.49a19.08,19.08,0,0,1,6.62-1.11c4.79,0,11.73,1.66,17.62,9.63l.52.71-.66.58A11.56,11.56,0,0,1,274.23,366.51ZM259.4,355.66c5,5.85,10.06,8.93,14.83,8.93a10.27,10.27,0,0,0,5.27-1.42c-5.27-6.67-11.3-8.09-15.49-8.09A19,19,0,0,0,259.4,355.66Z" transform="translate(-33.69 -27.62)"/><path class="cls-7" d="M224.1,367.83c0-.55-.12-13.76,26-15.61,23.16-1.66,45.81-10.66,60.59-24.07,15.64-14.2,41.71-44.33,40.66-86.46-1.07-43-6.42-81.56-61.24-116.87l2.08-3.23c56.41,36.32,61.89,75.84,63,120,1.09,43.65-25.79,74.74-41.92,89.39-15.39,14-38.9,23.34-62.9,25.06-22.16,1.57-22.42,11.62-22.42,11.71Z" transform="translate(-33.69 -27.62)"/><path class="cls-7" d="M222.63,355l-1.67-.79c-.48-.24-12-5.8-13.33-12.48a6.52,6.52,0,0,1,1.72-5.84,4.79,4.79,0,0,1,3.5-1.92c5.89,0,8.93,16,9.47,19.2Zm-9.78-19.12a3,3,0,0,0-2.06,1.27,4.68,4.68,0,0,0-1.29,4.19c.89,4.34,7.4,8.45,10.58,10.22C218.64,344.47,215.73,335.84,212.85,335.84Z" transform="translate(-33.69 -27.62)"/><path class="cls-7" d="M205,351l-1.72-1.14c-.69-.44-16.5-11-10-21.13,1-1.57,2-2.34,3.2-2.34,5.07,0,7.6,17.25,8.27,22.55Zm-8.52-22.68c-.42,0-1,.51-1.58,1.44-4.3,6.71,3.86,14.22,7.64,17.2C201.17,337.59,198.56,328.33,196.48,328.33Z" transform="translate(-33.69 -27.62)"/><path class="cls-7" d="M189.18,344.21l-1.78-1.37c-.6-.47-14.72-11.51-9-22,.92-1.67,1.89-2.48,3-2.48,4.52,0,6.75,16.55,7.51,23.66Zm-7.75-24c-.18,0-.66.31-1.3,1.49-3.82,7,3.14,14.76,6.62,18C185.43,329.1,183.06,320.24,181.43,320.24Z" transform="translate(-33.69 -27.62)"/><path class="cls-7" d="M175.34,336.28l-1.52-1.64c-.52-.55-12.64-13.76-5.24-23.21,1-1.33,2-2,3-2a2.24,2.24,0,0,1,1.66.77c3.31,3.5,2.34,21.76,2.23,23.83Zm-3.76-24.91c-.06,0-.54,0-1.5,1.25-4.91,6.28.68,15.06,3.59,18.86.28-7.55,0-18-1.83-19.95C171.7,311.36,171.61,311.36,171.58,311.36Z" transform="translate(-33.69 -27.62)"/><path class="cls-7" d="M161.8,324.64l-1.37-1.77c-.47-.61-11.36-14.83-3.15-23.6a4.42,4.42,0,0,1,3-1.71,2.22,2.22,0,0,1,1.7.81c3,3.54.68,20.64.19,24Zm-1.55-25.16c-.09,0-.59.06-1.57,1.11-5.45,5.81-.66,15.06,1.9,19.11,1-7.57,1.64-18.08-.09-20.07C160.36,299.48,160.29,299.48,160.25,299.48Z" transform="translate(-33.69 -27.62)"/><path class="cls-7" d="M150,312.42l-1.07-2.26c-.35-.74-8.42-18.28,1.49-27.87,2.12-2.07,3.81-2.25,4.76-1,2.81,3.78-3.23,24.56-4.47,28.69Zm3.6-30c-.11,0-.64.07-1.86,1.25-6.83,6.62-3.87,18.07-2.08,23.14C153.2,294.34,155,283.27,153.59,282.41Z" transform="translate(-33.69 -27.62)"/><path class="cls-7" d="M138.75,297.48l-.66-2.41c-.22-.78-5.29-19.41,6.05-27.23,2.37-1.65,4-1.62,4.77-.34,2.44,3.93-7.11,23.79-9,27.74Zm8.47-29a3.94,3.94,0,0,0-2,.93c-7.84,5.41-6.8,17.19-5.86,22.47,5.55-11.68,9.16-22.32,7.89-23.4Z" transform="translate(-33.69 -27.62)"/><path class="cls-7" d="M131.29,270.92l-.12-1.72c-.27-3.78,3.3-16.63,7.76-21.42,2.35-2.52,4.84-2.54,6.77-.14a6.17,6.17,0,0,1,1.27,4.88c-1,7.69-13.76,17-14.3,17.39Zm11.23-23.16a3.36,3.36,0,0,0-2.19,1.32c-3.38,3.62-6.48,13.18-7.14,18,3.43-2.76,11.17-9.48,11.89-14.83a4.29,4.29,0,0,0-.88-3.43A2.35,2.35,0,0,0,142.52,247.77Z" transform="translate(-33.69 -27.62)"/><path class="cls-7" d="M126.52,252.17l.24-1.86c.47-3.6,3.15-21.61,9.39-21.61a5,5,0,0,1,3.65,2,7.5,7.5,0,0,1,2,6.5c-1.35,7.37-13.1,13.78-13.6,14Zm9.63-21.57c-3.1,0-5.94,10-7.21,18,3.24-2,10-6.76,10.92-11.7a5.57,5.57,0,0,0-1.5-4.89A3.3,3.3,0,0,0,136.16,230.6Z" transform="translate(-33.69 -27.62)"/><path class="cls-7" d="M124.65,231l.28-1.5c1.94-10.45,9.66-15.32,14.26-15.32,2.64,0,4.43,1.44,4.83,3.83,1.16,7.2-15.94,12.06-17.9,12.59Zm14.54-14.91c-3.87,0-9.93,4.25-12,12.22,6.67-2,15.58-6.14,15-10A2.62,2.62,0,0,0,139.2,216.07Z" transform="translate(-33.69 -27.62)"/><path class="cls-7" d="M126,214.91l.3-1.59c2.25-11.83,14-15.81,19-15.81a4.63,4.63,0,0,1,3.25.92,2.15,2.15,0,0,1,.5,2.18c-.9,3.63-9.3,10.14-12.9,11.16-3.79,1.09-8.54,2.63-8.59,2.65Zm19.27-15.49c-4.27,0-14,3.22-16.7,12.65,1.74-.56,4.58-1.44,7-2.15,3.21-.92,10.89-7.11,11.58-9.77,0,0,.07-.29,0-.35A3.27,3.27,0,0,0,145.31,199.42Z" transform="translate(-33.69 -27.62)"/><path class="cls-7" d="M130.84,195.72l.34-1.25c1.22-4.61,14.41-13.71,19.89-13.71a3,3,0,0,1,2.48,1,3.67,3.67,0,0,1,.4,3.25c-2.35,9.76-21,10.6-21.81,10.63Zm20.23-13c-4.09,0-14.52,6.82-17.38,11,4.48-.42,16.75-2.19,18.4-9a2.18,2.18,0,0,0,0-1.62A1.32,1.32,0,0,0,151.07,182.67Z" transform="translate(-33.69 -27.62)"/><path class="cls-7" d="M138,180.63l-1.64,0,.47-1.26c2.48-6.61,7.87-10.1,15.6-10.1a32.28,32.28,0,0,1,10.4,1.84l1.67.64-1.46,1C152.46,180.25,140.35,180.63,138,180.63Zm14.43-9.49c-6.42,0-10.86,2.54-13.25,7.56a44.72,44.72,0,0,0,21.13-6.41A30.68,30.68,0,0,0,152.45,171.14Z" transform="translate(-33.69 -27.62)"/><path class="cls-7" d="M158,164.67h0A44,44,0,0,1,146.52,163l-1.42-.44,1-1.11c4.21-4.75,9.09-7.16,14.5-7.16a20.27,20.27,0,0,1,10.93,3.36l.76.54-.52.78C169.15,162.74,164.51,164.67,158,164.67Zm-9.38-3.12a41.47,41.47,0,0,0,9.38,1.19h0c5.37,0,9.25-1.37,11.58-4.08a18.72,18.72,0,0,0-9-2.48C156.2,156.19,152.17,158,148.6,161.56Z" transform="translate(-33.69 -27.62)"/><path class="cls-7" d="M173,152c-8.86,0-14.37-3.25-14.61-3.39l-.92-.55,6.79-8.9.45,0c16.39-.73,19.23,10.16,19.26,10.26l.21.89-.89.26A38.39,38.39,0,0,1,173,152Zm-12.65-4.54A30.46,30.46,0,0,0,173,150.06a36,36,0,0,0,8.79-1.11c-1-2.33-4.77-8.31-16.53-7.94Z" transform="translate(-33.69 -27.62)"/><path class="cls-7" d="M190.47,138.9h0c-11.08,0-16.2-4.9-16.4-5.11l-.76-.74,9.58-8.05.56.28c7.31,3.59,11.13,7,11.34,10.08a3.77,3.77,0,0,1-1.55,3.31l-.23.14-.25,0C192,138.88,191.2,138.9,190.47,138.9Zm-14.22-5.81c1.78,1.26,6.42,3.9,14.22,3.9h0c.6,0,1.23,0,1.86-.06a1.82,1.82,0,0,0,.54-1.48c-.1-1.3-1.52-4.08-9.72-8.18Z" transform="translate(-33.69 -27.62)"/><path class="cls-7" d="M196.47,126.94a33,33,0,0,1-8.77-1.36l-.69-.21,0-.74c.41-9.41,7.39-14.4,20.17-14.4a64,64,0,0,1,14.4,1.79l9.11,2.37-9.76-.49a8.06,8.06,0,0,0-2,.26c-3.58.91-7.14,4.07-10.28,6.86A37.23,37.23,0,0,1,203,125.5,13.08,13.08,0,0,1,196.47,126.94ZM189,124a31.13,31.13,0,0,0,7.47,1.06,11.3,11.3,0,0,0,5.57-1.18,37.09,37.09,0,0,0,5.35-4.26c2.77-2.46,5.85-5.21,9.16-6.63a59.5,59.5,0,0,0-9.34-.8C195.81,112.15,189.69,116.12,189,124Z" transform="translate(-33.69 -27.62)"/><path class="cls-7" d="M189.18,122.06l-1.45-1.25c2.23-2.55,11.89-5.09,21-7.23,1-.23,1.68-.38,1.86-.45l.61,1.81c-.2.07-.94.24-2,.5C204.78,116.49,191.3,119.63,189.18,122.06Z" transform="translate(-33.69 -27.62)"/><path class="cls-7" d="M172.31,133.68l-.08-1.58c0-.79-1.07-19.61,5.14-25.71a3.41,3.41,0,0,1,2.34-1.17,2.37,2.37,0,0,1,1.72.79c3.13,3.26,2.61,18.45,2.54,20.17l0,.51Zm7.4-26.54c-.08,0-.4,0-1,.62-4.63,4.54-4.74,18-4.64,22.63l8-4.81c.21-6.23-.17-16.29-2-18.25C179.86,107.14,179.75,107.14,179.71,107.14Z" transform="translate(-33.69 -27.62)"/><path class="cls-7" d="M157.3,148h0a1.71,1.71,0,0,1-.62-.11c-.36-.15-1.31-.53-2.26-5.11-1.22-5.89-2-18.55,3.77-24.39a4.14,4.14,0,0,1,2.8-1.52,2.28,2.28,0,0,1,1.74.83c3.1,3.52,1,20.53.73,22.46l-.08.28C162,143.31,159.48,148,157.3,148ZM161,118.84c-.11,0-.57.07-1.44.94-6.55,6.62-3.53,24.11-2.12,26.3.84-.42,2.69-3.22,4.14-6.27.91-7,1.61-18.65-.27-20.8C161.14,118.84,161,118.84,161,118.84Z" transform="translate(-33.69 -27.62)"/><path class="cls-7" d="M145.26,160.43h-2.53l-.28-.26c-.08-.07-8.17-8-.14-20.63,1.53-2.43,2.87-3.55,4.23-3.55a2.43,2.43,0,0,1,1.77.8c3.07,3.15,2.81,16.92,2.78,18.48v.43Zm-1.73-1.91h1l4.61-3.75c.09-5.62-.4-14.76-2.25-16.66-.21-.21-.35-.21-.39-.21s-1,.11-2.62,2.66C137.51,150.64,142.34,157.16,143.53,158.52Z" transform="translate(-33.69 -27.62)"/><path class="cls-7" d="M136.92,178.12l-1.21-1c-10.82-9.13-6.4-22.07-6.34-22.19l.16-.46.48-.14c2.8-.85,5-.3,6.53,1.58,4.21,5.28.88,20.06.74,20.69ZM131,156c-.63,2.19-2.67,11.26,4.7,18.52.93-4.84,2-14.08-.69-17.44C134.12,155.94,132.81,155.6,131,156Z" transform="translate(-33.69 -27.62)"/><path class="cls-7" d="M130,194.49l-.94-.35c-14.79-5.48-9.63-24-9.58-24.2l.23-.82.85.14a12.2,12.2,0,0,1,8.86,5.63c4.4,7.18,1,18.18.87,18.66Zm-8.89-23.17c-.79,3.42-2.83,16,7.63,20.63.7-2.81,2.27-10.81-1-16.07A10.1,10.1,0,0,0,121.09,171.31Z" transform="translate(-33.69 -27.62)"/><path class="cls-7" d="M126.64,209.43h0c-9.74,0-11-18.72-11-19.52l-.1-1.57L117,189c14.37,6.43,13.71,18.78,13.7,18.9l0,.6-.55.23A9.17,9.17,0,0,1,126.64,209.43Zm-8.94-18c.5,4.41,2.45,16.07,8.93,16.07h0a6.9,6.9,0,0,0,2.13-.38C128.71,204.85,127.78,196.67,117.7,191.46Z" transform="translate(-33.69 -27.62)"/><path class="cls-7" d="M125.82,232.33l-1.1-.44c-7.85-3.16-12.61-7.09-14.12-11.66a9,9,0,0,1,.53-7.24l.36-.61.7.19c13.32,3.55,14,14,14,17.11a10.84,10.84,0,0,1-.13,1.48Zm-13.36-17.7a7.52,7.52,0,0,0,0,5c1.25,3.71,5.33,7.14,11.8,9.93C124.34,226.15,123.36,217.9,112.46,214.63Z" transform="translate(-33.69 -27.62)"/><path class="cls-7" d="M126.46,251.58l-1.49-.19c-9.56-1.18-20.68-11-20.44-16.19,0-1.18.7-3.19,4.45-3.33h.35c10.64,0,16.42,17.54,16.66,18.28Zm-17.13-17.8-.27,0c-2.55.08-2.59,1.14-2.61,1.49-.18,3.77,8.74,12,17.17,13.93C122,245.05,116.91,233.78,109.33,233.78Z" transform="translate(-33.69 -27.62)"/><path class="cls-7" d="M126.47,270.78h0c-8.06,0-18.47-11.67-18.91-12.17l-1.06-1.2,1.55-.37a29.32,29.32,0,0,1,6.68-.85c13.78,0,15.57,12.69,15.58,12.83l.09.66-.6.31A7.06,7.06,0,0,1,126.47,270.78Zm-16.33-12.22c2.86,3,10.55,10.31,16.33,10.31h0a5.24,5.24,0,0,0,1.82-.3c-.54-2.45-3.12-10.46-13.56-10.46A25.52,25.52,0,0,0,110.14,258.56Z" transform="translate(-33.69 -27.62)"/><path class="cls-7" d="M128.31,288.72h0c-10.14,0-16.88-10.18-17.16-10.62l-.65-1,1.11-.42a25.56,25.56,0,0,1,9-1.83c11.7,0,14.82,11.17,14.86,11.29l.21.78-.74.34A15.92,15.92,0,0,1,128.31,288.72ZM113.48,278c1.92,2.49,7.49,8.75,14.83,8.75h0a14,14,0,0,0,5-1c-.88-2.35-4.13-9.07-12.75-9.07A22.25,22.25,0,0,0,113.48,278Z" transform="translate(-33.69 -27.62)"/><path class="cls-7" d="M136.13,306.94h0c-13.34,0-15.92-10.41-15.95-10.51l-.23-1,1-.18a26.32,26.32,0,0,1,4.57-.42c11.19,0,18.45,7.49,18.71,9.87a1.23,1.23,0,0,1-.92,1.38A33.83,33.83,0,0,1,136.13,306.94Zm-13.75-10c.94,2.36,4.22,8,13.75,8h0a30,30,0,0,0,5.95-.64c-1.31-2.1-7.44-7.62-16.55-7.62A22.34,22.34,0,0,0,122.38,297Z" transform="translate(-33.69 -27.62)"/><path class="cls-7" d="M147.29,325.12h0c-11.65,0-15.77-8.28-15.94-8.63l-.07-.18a1.28,1.28,0,0,1,.27-1.1c.37-.48,1.48-2,11.53-2.29,11.93-.36,15.22,9,15.23,9.07l.32.9-.91.3A32.32,32.32,0,0,1,147.29,325.12Zm-13.93-9c1,1.72,5,7,13.93,7h0a29.77,29.77,0,0,0,8.84-1.5c-1.07-2.1-4.49-7.15-13-6.87C136.3,315.05,134,315.82,133.35,316.17Z" transform="translate(-33.69 -27.62)"/><path class="cls-7" d="M150.92,340.62h0c-3.83,0-6.16-.82-6.93-2.45-.63-1.31-.17-2.92,1.36-4.8.24-.29.51-.58.77-.86a13.39,13.39,0,0,1,10-3.9c7.56,0,15,4.36,15.31,4.56l.94.55-.67.86C169.17,337.79,158,340.62,150.92,340.62Zm5.21-10.1a11.51,11.51,0,0,0-8.64,3.33c-.22.23-.45.48-.65.74-1,1.22-1.38,2.19-1.11,2.76.14.32,1,1.35,5.2,1.35h0c6.16,0,15.16-2.28,18.39-4.51C167,333,161.48,330.52,156.12,330.52Z" transform="translate(-33.69 -27.62)"/><path class="cls-7" d="M171.58,353.24h0a16.54,16.54,0,0,1-9.67-3.43l-.65-.52.44-.72c4.6-7.47,9.92-9,13.57-9,5,0,9.3,3,9.85,4l.27.5-.3.57C181.3,350.34,176.77,353.24,171.58,353.24Zm-7.78-4.42a14.56,14.56,0,0,0,7.77,2.52c4.33,0,8.19-2.43,11.51-7.18a13.26,13.26,0,0,0-7.83-2.7C170.88,341.46,167,343.92,163.8,348.82Z" transform="translate(-33.69 -27.62)"/><path class="cls-7" d="M193.83,361.76a45.08,45.08,0,0,1-13.26-1.87l-1.31-.46.88-1.07c5.31-6.49,10.45-9.78,15.26-9.78a9.54,9.54,0,0,1,7.12,3.1l.21.27v1.36C202.59,356.26,200.55,361.76,193.83,361.76Zm-11.27-3.3a45.72,45.72,0,0,0,11.27,1.39c6.56,0,7-6.34,7-6.6v-.59a7.78,7.78,0,0,0-5.42-2.15C191.51,350.51,187.09,353.24,182.56,358.46Z" transform="translate(-33.69 -27.62)"/><path class="cls-7" d="M204.91,366.51h0a11.61,11.61,0,0,1-7.29-2.41l-.67-.58.54-.71c5.88-8,12.82-9.63,17.62-9.63a19.3,19.3,0,0,1,6.63,1.11l1.19.49-.81,1C216.41,362.89,210.62,366.51,204.91,366.51Zm-5.29-3.35a10.4,10.4,0,0,0,5.29,1.43h0c4.75,0,9.86-3.08,14.82-8.93a19.14,19.14,0,0,0-4.62-.58C210.91,355.08,204.91,356.5,199.61,363.16Z" transform="translate(-33.69 -27.62)"/><path class="cls-7" d="M255,367.83l-3.82-.11,1.92.07-1.92,0c0-.09-.27-10.14-22.42-11.71-24-1.71-47.51-11.08-62.89-25.06-16.12-14.64-43-45.74-41.93-89.39,1.09-44.16,6.59-83.67,63-120l2.08,3.23c-54.81,35.31-60.16,73.82-61.23,116.87-1,42.13,25,72.26,40.66,86.46,14.77,13.41,37.42,22.42,60.59,24.07C255.15,354.07,255,367.28,255,367.83Z" transform="translate(-33.69 -27.62)"/><path class="cls-2" d="M75.63,235.25c3.22,0,3.22-5,0-5s-3.22,5,0,5Z" transform="translate(-33.69 -27.62)"/><path class="cls-2" d="M75.88,235.25c3.22,0,3.22-5,0-5s-3.22,5,0,5Z" transform="translate(-33.69 -27.62)"/><path class="cls-2" d="M75.5,235c3.22,0,3.22-5,0-5s-3.22,5,0,5Z" transform="translate(-33.69 -27.62)"/><path class="cls-2" d="M76,235c3.22,0,3.22-5,0-5s-3.22,5,0,5Z" transform="translate(-33.69 -27.62)"/><path class="cls-2" d="M75.78,235c3.22,0,3.22-5,0-5s-3.22,5,0,5Z" transform="translate(-33.69 -27.62)"/><path class="cls-2" d="M75.79,234.79c3.22,0,3.22-5,0-5s-3.22,5,0,5Z" transform="translate(-33.69 -27.62)"/><path class="cls-2" d="M76,234.92c3.22,0,3.22-5,0-5s-3.22,5,0,5Z" transform="translate(-33.69 -27.62)"/><path class="cls-2" d="M76,235c3.22,0,3.22-5,0-5s-3.22,5,0,5Z" transform="translate(-33.69 -27.62)"/><path class="cls-2" d="M76,235.1c3.22,0,3.22-5,0-5s-3.22,5,0,5Z" transform="translate(-33.69 -27.62)"/><path class="cls-2" d="M75.92,235.19c3.22,0,3.22-5,0-5s-3.22,5,0,5Z" transform="translate(-33.69 -27.62)"/><path class="cls-2" d="M75.73,235.19c3.22,0,3.22-5,0-5s-3.22,5,0,5Z" transform="translate(-33.69 -27.62)"/><path class="cls-2" d="M75.6,235.08c3.22,0,3.22-5,0-5s-3.22,5,0,5Z" transform="translate(-33.69 -27.62)"/><path class="cls-2" d="M75.56,234.92c3.22,0,3.22-5,0-5s-3.22,5,0,5Z" transform="translate(-33.69 -27.62)"/><path class="cls-2" d="M75.63,234.73c3.22,0,3.22-5,0-5s-3.22,5,0,5Z" transform="translate(-33.69 -27.62)"/><path class="cls-2" d="M75.92,234.69c3.22,0,3.22-5,0-5s-3.22,5,0,5Z" transform="translate(-33.69 -27.62)"/><path class="cls-2" d="M75.48,235c3.22,0,3.22-5,0-5s-3.22,5,0,5Z" transform="translate(-33.69 -27.62)"/><path class="cls-2" d="M75.52,235.19c3.22,0,3.22-5,0-5s-3.22,5,0,5Z" transform="translate(-33.69 -27.62)"/><path class="cls-2" d="M75.6,235.33c3.22,0,3.22-5,0-5s-3.22,5,0,5Z" transform="translate(-33.69 -27.62)"/><path class="cls-2" d="M75.81,235.4c3.22,0,3.22-5,0-5s-3.22,5,0,5Z" transform="translate(-33.69 -27.62)"/><path class="cls-2" d="M76,235.33c3.22,0,3.22-5,0-5s-3.22,5,0,5Z" transform="translate(-33.69 -27.62)"/><path class="cls-2" d="M76,235.23c3.22,0,3.22-5,0-5s-3.22,5,0,5Z" transform="translate(-33.69 -27.62)"/><path class="cls-2" d="M76.13,235.15c3.22,0,3.22-5,0-5s-3.22,5,0,5Z" transform="translate(-33.69 -27.62)"/><path class="cls-2" d="M76.13,235c3.22,0,3.22-5,0-5s-3.22,5,0,5Z" transform="translate(-33.69 -27.62)"/><path class="cls-2" d="M76.1,235c3.22,0,3.22-5,0-5s-3.22,5,0,5Z" transform="translate(-33.69 -27.62)"/><path class="cls-2" d="M76.06,234.92c3.22,0,3.22-5,0-5s-3.22,5,0,5Z" transform="translate(-33.69 -27.62)"/><path class="cls-2" d="M76,234.9c3.22,0,3.22-5,0-5s-3.22,5,0,5Z" transform="translate(-33.69 -27.62)"/><path class="cls-2" d="M76,234.83c3.22,0,3.22-5,0-5s-3.22,5,0,5Z" transform="translate(-33.69 -27.62)"/><path class="cls-2" d="M76,234.85c3.22,0,3.22-5,0-5s-3.22,5,0,5Z" transform="translate(-33.69 -27.62)"/><path class="cls-2" d="M76,234.85c3.22,0,3.22-5,0-5s-3.22,5,0,5Z" transform="translate(-33.69 -27.62)"/><path class="cls-2" d="M76.06,234.85c3.22,0,3.22-5,0-5s-3.22,5,0,5Z" transform="translate(-33.69 -27.62)"/><path class="cls-2" d="M76.06,234.85c3.22,0,3.22-5,0-5s-3.22,5,0,5Z" transform="translate(-33.69 -27.62)"/><path class="cls-2" d="M75.94,234.81c3.22,0,3.22-5,0-5s-3.22,5,0,5Z" transform="translate(-33.69 -27.62)"/><path class="cls-2" d="M75.81,234.79c3.22,0,3.22-5,0-5s-3.22,5,0,5Z" transform="translate(-33.69 -27.62)"/><path class="cls-2" d="M75.75,234.75c3.22,0,3.22-5,0-5s-3.22,5,0,5Z" transform="translate(-33.69 -27.62)"/><path class="cls-2" d="M75.73,234.73c3.22,0,3.22-5,0-5s-3.22,5,0,5Z" transform="translate(-33.69 -27.62)"/><path class="cls-2" d="M75.67,234.71c3.22,0,3.22-5,0-5s-3.22,5,0,5Z" transform="translate(-33.69 -27.62)"/><path class="cls-2" d="M75.63,234.71c3.22,0,3.22-5,0-5s-3.22,5,0,5Z" transform="translate(-33.69 -27.62)"/><path class="cls-2" d="M75.5,234.77c3.22,0,3.22-5,0-5s-3.22,5,0,5Z" transform="translate(-33.69 -27.62)"/></svg>