<svg id="visual" viewBox="0 0 900 100" width="900" height="100" xmlns="http://www.w3.org/2000/svg" xmlns:xlink="http://www.w3.org/1999/xlink" version="1.1"><path d="M0 15L6.8 14.5C13.7 14 27.3 13 41 14.5C54.7 16 68.3 20 82 19.7C95.7 19.3 109.3 14.7 123 12C136.7 9.3 150.3 8.7 164 8C177.7 7.3 191.3 6.7 204.8 7C218.3 7.3 231.7 8.7 245.2 8.7C258.7 8.7 272.3 7.3 286 8.3C299.7 9.3 313.3 12.7 327 13.5C340.7 14.3 354.3 12.7 368 11.2C381.7 9.7 395.3 8.3 409 9C422.7 9.7 436.3 12.3 450 12.7C463.7 13 477.3 11 491 11.7C504.7 12.3 518.3 15.7 532 17.5C545.7 19.3 559.3 19.7 573 17.7C586.7 15.7 600.3 11.3 614 9.2C627.7 7 641.3 7 654.8 8.7C668.3 10.3 681.7 13.7 695.2 13.8C708.7 14 722.3 11 736 10.3C749.7 9.7 763.3 11.3 777 13C790.7 14.7 804.3 16.3 818 17.2C831.7 18 845.3 18 859 17.3C872.7 16.7 886.3 15.3 893.2 14.7L900 14L900 0L893.2 0C886.3 0 872.7 0 859 0C845.3 0 831.7 0 818 0C804.3 0 790.7 0 777 0C763.3 0 749.7 0 736 0C722.3 0 708.7 0 695.2 0C681.7 0 668.3 0 654.8 0C641.3 0 627.7 0 614 0C600.3 0 586.7 0 573 0C559.3 0 545.7 0 532 0C518.3 0 504.7 0 491 0C477.3 0 463.7 0 450 0C436.3 0 422.7 0 409 0C395.3 0 381.7 0 368 0C354.3 0 340.7 0 327 0C313.3 0 299.7 0 286 0C272.3 0 258.7 0 245.2 0C231.7 0 218.3 0 204.8 0C191.3 0 177.7 0 164 0C150.3 0 136.7 0 123 0C109.3 0 95.7 0 82 0C68.3 0 54.7 0 41 0C27.3 0 13.7 0 6.8 0L0 0Z" fill="#ffffff"></path><path d="M0 19L6.8 19.8C13.7 20.7 27.3 22.3 41 24C54.7 25.7 68.3 27.3 82 26.2C95.7 25 109.3 21 123 18.8C136.7 16.7 150.3 16.3 164 15C177.7 13.7 191.3 11.3 204.8 12.2C218.3 13 231.7 17 245.2 17.2C258.7 17.3 272.3 13.7 286 14.8C299.7 16 313.3 22 327 23.8C340.7 25.7 354.3 23.3 368 21.2C381.7 19 395.3 17 409 18C422.7 19 436.3 23 450 24.3C463.7 25.7 477.3 24.3 491 25.7C504.7 27 518.3 31 532 31.7C545.7 32.3 559.3 29.7 573 26.8C586.7 24 600.3 21 614 19.8C627.7 18.7 641.3 19.3 654.8 20.5C668.3 21.7 681.7 23.3 695.2 24.2C708.7 25 722.3 25 736 25C749.7 25 763.3 25 777 26.3C790.7 27.7 804.3 30.3 818 31.2C831.7 32 845.3 31 859 28.7C872.7 26.3 886.3 22.7 893.2 20.8L900 19L900 12L893.2 12.7C886.3 13.3 872.7 14.7 859 15.3C845.3 16 831.7 16 818 15.2C804.3 14.3 790.7 12.7 777 11C763.3 9.3 749.7 7.7 736 8.3C722.3 9 708.7 12 695.2 11.8C681.7 11.7 668.3 8.3 654.8 6.7C641.3 5 627.7 5 614 7.2C600.3 9.3 586.7 13.7 573 15.7C559.3 17.7 545.7 17.3 532 15.5C518.3 13.7 504.7 10.3 491 9.7C477.3 9 463.7 11 450 10.7C436.3 10.3 422.7 7.7 409 7C395.3 6.3 381.7 7.7 368 9.2C354.3 10.7 340.7 12.3 327 11.5C313.3 10.7 299.7 7.3 286 6.3C272.3 5.3 258.7 6.7 245.2 6.7C231.7 6.7 218.3 5.3 204.8 5C191.3 4.7 177.7 5.3 164 6C150.3 6.7 136.7 7.3 123 10C109.3 12.7 95.7 17.3 82 17.7C68.3 18 54.7 14 41 12.5C27.3 11 13.7 12 6.8 12.5L0 13Z" fill="#cdcfcf"></path><path d="M0 29L6.8 29.5C13.7 30 27.3 31 41 34.2C54.7 37.3 68.3 42.7 82 45.3C95.7 48 109.3 48 123 45.2C136.7 42.3 150.3 36.7 164 35.5C177.7 34.3 191.3 37.7 204.8 38.5C218.3 39.3 231.7 37.7 245.2 37.3C258.7 37 272.3 38 286 37.7C299.7 37.3 313.3 35.7 327 36.2C340.7 36.7 354.3 39.3 368 37.3C381.7 35.3 395.3 28.7 409 27.5C422.7 26.3 436.3 30.7 450 32.5C463.7 34.3 477.3 33.7 491 36.2C504.7 38.7 518.3 44.3 532 45.2C545.7 46 559.3 42 573 38.5C586.7 35 600.3 32 614 30.5C627.7 29 641.3 29 654.8 31.8C668.3 34.7 681.7 40.3 695.2 40.3C708.7 40.3 722.3 34.7 736 35.3C749.7 36 763.3 43 777 47C790.7 51 804.3 52 818 52.3C831.7 52.7 845.3 52.3 859 50.2C872.7 48 886.3 44 893.2 42L900 40L900 17L893.2 18.8C886.3 20.7 872.7 24.3 859 26.7C845.3 29 831.7 30 818 29.2C804.3 28.3 790.7 25.7 777 24.3C763.3 23 749.7 23 736 23C722.3 23 708.7 23 695.2 22.2C681.7 21.3 668.3 19.7 654.8 18.5C641.3 17.3 627.7 16.7 614 17.8C600.3 19 586.7 22 573 24.8C559.3 27.7 545.7 30.3 532 29.7C518.3 29 504.7 25 491 23.7C477.3 22.3 463.7 23.7 450 22.3C436.3 21 422.7 17 409 16C395.3 15 381.7 17 368 19.2C354.3 21.3 340.7 23.7 327 21.8C313.3 20 299.7 14 286 12.8C272.3 11.7 258.7 15.3 245.2 15.2C231.7 15 218.3 11 204.8 10.2C191.3 9.3 177.7 11.7 164 13C150.3 14.3 136.7 14.7 123 16.8C109.3 19 95.7 23 82 24.2C68.3 25.3 54.7 23.7 41 22C27.3 20.3 13.7 18.7 6.8 17.8L0 17Z" fill="#9ea0a2"></path><path d="M0 43L6.8 42.5C13.7 42 27.3 41 41 42.3C54.7 43.7 68.3 47.3 82 50C95.7 52.7 109.3 54.3 123 53.5C136.7 52.7 150.3 49.3 164 47.8C177.7 46.3 191.3 46.7 204.8 45.5C218.3 44.3 231.7 41.7 245.2 41.2C258.7 40.7 272.3 42.3 286 43.5C299.7 44.7 313.3 45.3 327 47.3C340.7 49.3 354.3 52.7 368 49.7C381.7 46.7 395.3 37.3 409 34.8C422.7 32.3 436.3 36.7 450 39.7C463.7 42.7 477.3 44.3 491 47.2C504.7 50 518.3 54 532 53.2C545.7 52.3 559.3 46.7 573 44.5C586.7 42.3 600.3 43.7 614 42.3C627.7 41 641.3 37 654.8 39.7C668.3 42.3 681.7 51.7 695.2 52.7C708.7 53.7 722.3 46.3 736 45.3C749.7 44.3 763.3 49.7 777 53.7C790.7 57.7 804.3 60.3 818 61C831.7 61.7 845.3 60.3 859 57.5C872.7 54.7 886.3 50.3 893.2 48.2L900 46L900 38L893.2 40C886.3 42 872.7 46 859 48.2C845.3 50.3 831.7 50.7 818 50.3C804.3 50 790.7 49 777 45C763.3 41 749.7 34 736 33.3C722.3 32.7 708.7 38.3 695.2 38.3C681.7 38.3 668.3 32.7 654.8 29.8C641.3 27 627.7 27 614 28.5C600.3 30 586.7 33 573 36.5C559.3 40 545.7 44 532 43.2C518.3 42.3 504.7 36.7 491 34.2C477.3 31.7 463.7 32.3 450 30.5C436.3 28.7 422.7 24.3 409 25.5C395.3 26.7 381.7 33.3 368 35.3C354.3 37.3 340.7 34.7 327 34.2C313.3 33.7 299.7 35.3 286 35.7C272.3 36 258.7 35 245.2 35.3C231.7 35.7 218.3 37.3 204.8 36.5C191.3 35.7 177.7 32.3 164 33.5C150.3 34.7 136.7 40.3 123 43.2C109.3 46 95.7 46 82 43.3C68.3 40.7 54.7 35.3 41 32.2C27.3 29 13.7 28 6.8 27.5L0 27Z" fill="#717477"></path><path d="M0 70L6.8 67.3C13.7 64.7 27.3 59.3 41 60.7C54.7 62 68.3 70 82 73.7C95.7 77.3 109.3 76.7 123 78.3C136.7 80 150.3 84 164 82.8C177.7 81.7 191.3 75.3 204.8 72.7C218.3 70 231.7 71 245.2 69.7C258.7 68.3 272.3 64.7 286 65.5C299.7 66.3 313.3 71.7 327 75C340.7 78.3 354.3 79.7 368 78.5C381.7 77.3 395.3 73.7 409 73.2C422.7 72.7 436.3 75.3 450 75C463.7 74.7 477.3 71.3 491 72.8C504.7 74.3 518.3 80.7 532 80.7C545.7 80.7 559.3 74.3 573 72.2C586.7 70 600.3 72 614 71C627.7 70 641.3 66 654.8 68.8C668.3 71.7 681.7 81.3 695.2 81.8C708.7 82.3 722.3 73.7 736 72.8C749.7 72 763.3 79 777 81.2C790.7 83.3 804.3 80.7 818 77.5C831.7 74.3 845.3 70.7 859 66.8C872.7 63 886.3 59 893.2 57L900 55L900 44L893.2 46.2C886.3 48.3 872.7 52.7 859 55.5C845.3 58.3 831.7 59.7 818 59C804.3 58.3 790.7 55.7 777 51.7C763.3 47.7 749.7 42.3 736 43.3C722.3 44.3 708.7 51.7 695.2 50.7C681.7 49.7 668.3 40.3 654.8 37.7C641.3 35 627.7 39 614 40.3C600.3 41.7 586.7 40.3 573 42.5C559.3 44.7 545.7 50.3 532 51.2C518.3 52 504.7 48 491 45.2C477.3 42.3 463.7 40.7 450 37.7C436.3 34.7 422.7 30.3 409 32.8C395.3 35.3 381.7 44.7 368 47.7C354.3 50.7 340.7 47.3 327 45.3C313.3 43.3 299.7 42.7 286 41.5C272.3 40.3 258.7 38.7 245.2 39.2C231.7 39.7 218.3 42.3 204.8 43.5C191.3 44.7 177.7 44.3 164 45.8C150.3 47.3 136.7 50.7 123 51.5C109.3 52.3 95.7 50.7 82 48C68.3 45.3 54.7 41.7 41 40.3C27.3 39 13.7 40 6.8 40.5L0 41Z" fill="#474b4e"></path><path d="M0 101L6.8 101C13.7 101 27.3 101 41 101C54.7 101 68.3 101 82 101C95.7 101 109.3 101 123 101C136.7 101 150.3 101 164 101C177.7 101 191.3 101 204.8 101C218.3 101 231.7 101 245.2 101C258.7 101 272.3 101 286 101C299.7 101 313.3 101 327 101C340.7 101 354.3 101 368 101C381.7 101 395.3 101 409 101C422.7 101 436.3 101 450 101C463.7 101 477.3 101 491 101C504.7 101 518.3 101 532 101C545.7 101 559.3 101 573 101C586.7 101 600.3 101 614 101C627.7 101 641.3 101 654.8 101C668.3 101 681.7 101 695.2 101C708.7 101 722.3 101 736 101C749.7 101 763.3 101 777 101C790.7 101 804.3 101 818 101C831.7 101 845.3 101 859 101C872.7 101 886.3 101 893.2 101L900 101L900 53L893.2 55C886.3 57 872.7 61 859 64.8C845.3 68.7 831.7 72.3 818 75.5C804.3 78.7 790.7 81.3 777 79.2C763.3 77 749.7 70 736 70.8C722.3 71.7 708.7 80.3 695.2 79.8C681.7 79.3 668.3 69.7 654.8 66.8C641.3 64 627.7 68 614 69C600.3 70 586.7 68 573 70.2C559.3 72.3 545.7 78.7 532 78.7C518.3 78.7 504.7 72.3 491 70.8C477.3 69.3 463.7 72.7 450 73C436.3 73.3 422.7 70.7 409 71.2C395.3 71.7 381.7 75.3 368 76.5C354.3 77.7 340.7 76.3 327 73C313.3 69.7 299.7 64.3 286 63.5C272.3 62.7 258.7 66.3 245.2 67.7C231.7 69 218.3 68 204.8 70.7C191.3 73.3 177.7 79.7 164 80.8C150.3 82 136.7 78 123 76.3C109.3 74.7 95.7 75.3 82 71.7C68.3 68 54.7 60 41 58.7C27.3 57.3 13.7 62.7 6.8 65.3L0 68Z" fill="#212529"></path></svg>